<svg xmlns="http://www.w3.org/2000/svg" viewBox="0 0 96 96">
  <title>icon-twitter</title>
  <g>
    <circle cx="48" cy="48" r="36" style="fill: #24292e"/>
    <path d="M67.1,38.2c0,.4,0,.8,0,1.3,0,13-9.9,28-28,28A27.9,27.9,0,0,1,24,63.1h2.3A19.8,19.8,0,0,0,38.6,59a9.9,9.9,0,0,1-9.2-6.8l1.9.2a9.8,9.8,0,0,0,2.6-.3,9.9,9.9,0,0,1-7.9-9.7h0a9.8,9.8,0,0,0,4.5,1.2,9.9,9.9,0,0,1-3-13.1A28,28,0,0,0,47.6,40.6a9.9,9.9,0,0,1,16.8-9,19.7,19.7,0,0,0,6.3-2.4,9.9,9.9,0,0,1-4.3,5.4A19.7,19.7,0,0,0,72,33.1,19.9,19.9,0,0,1,67.1,38.2Z" style="fill: #fff"/>
  </g>
</svg>
