<svg xmlns="http://www.w3.org/2000/svg" viewBox="0 0 96 96">
  <title>icon-repos</title>
  <g>
    <circle cx="48" cy="48" r="36" style="fill: #24292e"/>
    <path d="M39,61.4v9.8c0,.2.2.5.5.7s.5,0,.7,0l4.4-3.4a.7.7,0,0,1,1,0L50,71.9c.2,0,.5.2.7,0s.5-.5.5-.7V61.4c0-.5-.2-1-.7-1H39.7c-.5,0-.7.5-.7,1m23-33v23H37.5a6.8,6.8,0,0,0-3.2.7V31.6a3.2,3.2,0,0,1,3.2-3.2ZM29.7,31.6A7.5,7.5,0,0,1,37.5,24H64.1a2.2,2.2,0,0,1,2.2,2.2V64.3a2.2,2.2,0,0,1-2.2,2.2H56.6c-1,0-1.7-.2-2-1a2.2,2.2,0,0,1,0-2.4c.2-.7,1-1,2-1h5.4V56H37.5a3.4,3.4,0,0,0-2.9,1.7,3,3,0,0,0,.7,3.4,2.6,2.6,0,0,1,0,3.2,2.4,2.4,0,0,1-3.4,0,8.8,8.8,0,0,1-2.2-5.4Z" style="fill: #fff;fill-rule: evenodd"/>
  </g>
</svg>
