<svg xmlns="http://www.w3.org/2000/svg" viewBox="0 0 96 96">
  <title>icon-linkedin</title>
  <g>
    <circle cx="48" cy="48" r="36" style="fill: #24292e"/>
    <rect x="26.9" y="38.6" width="9" height="27.92" style="fill: #fff"/>
    <path d="M32,25a4.8,4.8,0,1,0-.1,9.6h.1A4.8,4.8,0,1,0,32,25Z" style="fill: #fff"/>
    <path d="M58.7,38.6a8.9,8.9,0,0,0-8.2,4.6v-4h-9c.1,2.6,0,27.9,0,27.9h9V51.6a6.5,6.5,0,0,1,.3-2.3A5,5,0,0,1,55.5,46c3.3,0,4.6,2.6,4.6,6.3V67.2h9v-16C69.1,42.6,64.7,38.6,58.7,38.6Z" style="fill: #fff"/>
  </g>
</svg>
