<svg xmlns="http://www.w3.org/2000/svg" viewBox="0 0 96 96">
  <title>icon-email</title>
  <g>
    <circle cx="48" cy="48" r="36" style="fill: #24292e"/>
    <path d="M46.2,71.8a23,23,0,0,1-15.6-5.8A20.6,20.6,0,0,1,24,50.4,26.2,26.2,0,0,1,31.3,32a26.6,26.6,0,0,1,19.4-7.9c6.2,0,11.5,2,15.4,5.6A19.3,19.3,0,0,1,72,44.1c0,10.8-6.7,16.4-13.2,16.4A5.6,5.6,0,0,1,54.5,59a4.8,4.8,0,0,1-1.2-2.4l-.2-.7-.5.6a12.1,12.1,0,0,1-9.9,4.7c-4.4,0-8.8-3.3-8.8-9.5a17,17,0,0,1,5.2-12.1,18.9,18.9,0,0,1,13.3-5.2,23.6,23.6,0,0,1,7,1A2.1,2.1,0,0,1,61,37.9L58.7,49.4c-.5,2.4-1,5.2-.2,6.2a1.4,1.4,0,0,0,1.2.5h.1c3.4,0,7-4.6,7-11.5,0-10-6.4-16.1-16.7-16.1C38,28.4,29.2,37.5,29.2,50c0,10.4,7.2,17.5,17.8,17.5a25.8,25.8,0,0,0,9.5-1.9h.2c.4,0,.8.8,1.2,1.6h.1l.2.4c.3.6.6,1.2.4,1.5a1.1,1.1,0,0,1-.7.5A29.1,29.1,0,0,1,46.2,71.8Zm5.2-32c-5.8,0-10.8,5.2-10.8,11.4,0,1.1.3,4.5,4.1,4.5s7.4-4.6,8.2-8.6l1.2-6a1,1,0,0,0-.8-1.1Z" style="fill: #fff"/>
  </g>
</svg>
